<svg xmlns="http://www.w3.org/2000/svg" width="28.908" height="36" viewBox="0 0 28.908 36">
  <g id="bill-comparision-btn" transform="translate(-314 -670.383)">
    <path id="bill_comparision-icon" data-name="bill comparision-icon" d="M12.512,32.928a1.221,1.221,0,0,0-1.536,0L7.588,36,4.155,32.928a1.175,1.175,0,0,0-1.535,0L0,35.367v-28C0,7.331,0,7.3,0,7.27a1.941,1.941,0,0,1,2.03-1.85H21.455l.093,0a1.943,1.943,0,0,1,1.94,1.945v28l-2.62-2.439a1.176,1.176,0,0,0-1.536,0L15.9,36ZM5.465,24.618a.678.678,0,0,0,.678.677h11.2a.677.677,0,1,0,0-1.354H6.142A.678.678,0,0,0,5.465,24.618Zm0-5.872a.678.678,0,0,0,.678.678h11.2a.678.678,0,0,0,0-1.355H6.142A.678.678,0,0,0,5.465,18.745Zm0-5.872a.678.678,0,0,0,.678.677h5.782a.677.677,0,1,0,0-1.355H6.142A.679.679,0,0,0,5.465,12.874ZM26.288,27.6a1.175,1.175,0,0,0-1.445-.045V7.363h0a3.342,3.342,0,0,0-3.388-3.3H5.42V2.078A2.078,2.078,0,0,1,7.453,0H26.876a2.077,2.077,0,0,1,2.032,2.078V30.038Z" transform="translate(314 670.383)" fill="#230c57"/>
  </g>
</svg>
