<?xml version="1.0" encoding="iso-8859-1"?>

<svg version="1.1" id="Capa_1" xmlns="http://www.w3.org/2000/svg" xmlns:xlink="http://www.w3.org/1999/xlink" x="0px" y="0px" viewBox="0 0 510.921 510.921" style="enable-background:new 0 0 510.921 510.921;" xml:space="preserve"><g><g><g><path d="M275.713,128.609c55.208,8.542,98.042,51.385,106.604,106.615c0.813,5.198,5.271,9.031,10.542,9.031h107.396
				c2.979,0,5.833-1.25,7.854-3.458c2.021-2.198,3.021-5.146,2.771-8.125C500.192,108.588,402.358,10.755,278.254,0.046
				c-2.979-0.271-5.917,0.74-8.125,2.76c-2.208,2.021-3.458,4.875-3.458,7.865v107.396
				C266.671,123.328,270.504,127.807,275.713,128.609z"/><path d="M500.254,265.588H392.858c-5.271,0-9.729,3.833-10.542,9.042c-9.708,62.75-62.833,108.292-126.313,108.292
				c-70.583,0-128-57.417-128-128c0-63.479,45.542-116.604,108.292-126.313c5.208-0.802,9.042-5.281,9.042-10.542V10.671
				c0-2.99-1.25-5.844-3.458-7.865c-2.208-2.031-5.146-3.042-8.125-2.76C102.671,11.348,0.004,123.307,0.004,254.921
				c0,141.156,114.833,256,256,256c131.604,0,243.563-102.677,254.875-233.75c0.25-2.979-0.75-5.927-2.771-8.125
				C506.088,266.838,503.233,265.588,500.254,265.588z"/></g></g></g></svg>
