<svg id="crying" xmlns="http://www.w3.org/2000/svg" width="25.83" height="25.83" viewBox="0 0 25.83 25.83">
  <path id="Path_101" data-name="Path 101" d="M12.915,0A12.915,12.915,0,1,1,0,12.915,12.915,12.915,0,0,1,12.915,0Z" transform="translate(0 0)" fill="#f16f3f" opacity="0.62"/>
  <path id="Path_51" data-name="Path 51" d="M127.181,306.392a9.1,9.1,0,0,0-13.138-.019c-.457.472.263,1.194.721.721a8.074,8.074,0,0,1,11.7.019c.457.475,1.177-.247.721-.721Z" transform="translate(-107.689 -287.037)" fill="#333"/>
  <g id="Group_88" data-name="Group 88" transform="translate(6.961 6.432)">
    <ellipse id="Ellipse_14" data-name="Ellipse 14" cx="2.028" cy="2.028" rx="2.028" ry="2.028" fill="#333"/>
    <ellipse id="Ellipse_15" data-name="Ellipse 15" cx="2.028" cy="2.028" rx="2.028" ry="2.028" transform="translate(7.67)" fill="#333"/>
  </g>
</svg>
