<?xml version="1.0" encoding="utf-8"?>
<!-- Generator: Adobe Illustrator 24.1.2, SVG Export Plug-In . SVG Version: 6.00 Build 0)  -->
<svg version="1.1" id="Layer_1" xmlns="http://www.w3.org/2000/svg" xmlns:xlink="http://www.w3.org/1999/xlink" x="0px" y="0px"
	 viewBox="0 0 299 305" style="enable-background:new 0 0 299 305;" xml:space="preserve">
<style type="text/css">
	.st0{fill:#E6E6E6;}
	.st1{fill:#FFFFFF;}
	.st2{fill:none;}
	.st3{fill:none;stroke:#FFFFFF;stroke-width:6;}
</style>
<g id="Group_103" transform="translate(-64 -119)">
	<g id="chart-main" transform="translate(75.333 139.333)">
		<g id="Group_3" transform="translate(0 0)">
			<path id="Path_1" class="st0" d="M9.3,81.5l-0.4,1l0.5,0.2c0.1-0.3,0.3-0.7,0.4-1L9.3,81.5z"/>
			<path id="Path_2" class="st0" d="M21.3,58.9l-0.6,0.9l0.4,0.3c0.2-0.3,0.4-0.6,0.6-0.9L21.3,58.9z"/>
			<path id="Path_3" class="st0" d="M132.4,10.2c0.2,0,0.4,0,0.5,0L133,0c-0.2,0-0.4,0-0.5,0c-0.2,0-0.4,0-0.5,0l-0.1,10.2
				C132,10.2,132.2,10.2,132.4,10.2z"/>
			<path id="Path_4" class="st0" d="M131,253.1c-0.2,0-0.4,0-0.5,0l-0.1,10.2c0.2,0,0.4,0,0.5,0c0.2,0,0.4,0,0.5,0l0.1-10.2
				C131.3,253.1,131.1,253.1,131,253.1z"/>
			<path id="Path_5" class="st0" d="M10.2,132.9c0-0.4,0-0.7,0-1.1L0,131.8c0,0.4,0,0.7,0,1.1L10.2,132.9z"/>
			<path id="Path_6" class="st0" d="M253.1,134.3l10.2,0.1l0-1.1l-10.2-0.1C253.1,133.6,253.1,134,253.1,134.3z"/>
			<path id="Path_7" class="st0" d="M219,47.4l7.3-7.2c-0.2-0.3-0.5-0.5-0.7-0.8l-7.3,7.2C218.6,46.9,218.8,47.2,219,47.4z"/>
			<path id="Path_8" class="st0" d="M45.7,217.3l-7.3,7.2c0.2,0.3,0.5,0.5,0.8,0.7l7.3-7.2C46.2,217.8,45.9,217.6,45.7,217.3z"/>
			<path id="Path_9" class="st0" d="M215.9,219l7.2,7.3c0.3-0.2,0.5-0.5,0.8-0.7l-7.2-7.3C216.4,218.6,216.2,218.8,215.9,219z"/>
			<path id="Path_10" class="st0" d="M38.8,38.4l-0.8,0.7l7.2,7.3c0.2-0.3,0.5-0.5,0.7-0.8L38.8,38.4z"/>
			<path id="Path_11" class="st0" d="M179,19.8l3.9-9.5l-1-0.4l-3.9,9.5L179,19.8z"/>
			<path id="Path_12" class="st0" d="M85,243.8l-3.9,9.5c0.3,0.1,0.7,0.3,1,0.4l3.9-9.5C85.7,244,85.3,243.9,85,243.8z"/>
			<path id="Path_13" class="st0" d="M243.2,179.6l9.5,3.9c0.1-0.3,0.3-0.7,0.4-1l-9.5-3.9C243.5,179,243.4,179.3,243.2,179.6z"/>
			<path id="Path_14" class="st0" d="M19.3,85.7l-9.5-3.9c-0.1,0.3-0.3,0.7-0.4,1l9.5,3.9C19,86.3,19.2,86,19.3,85.7z"/>
			<path id="Path_15" class="st0" d="M19.7,178.5l-9.5,3.9c0.1,0.3,0.3,0.6,0.4,1l9.5-3.9C19.9,179.2,19.8,178.9,19.7,178.5z"/>
			<path id="Path_16" class="st0" d="M244.4,86.6l9.5-3.9c-0.1-0.3-0.3-0.7-0.4-1l-9.5,3.9C244.2,86,244.3,86.3,244.4,86.6z"/>
			<path id="Path_17" class="st0" d="M177.1,244.3l3.9,9.5c0.3-0.1,0.7-0.3,1-0.4l-3.9-9.5C177.8,244,177.5,244.1,177.1,244.3z"/>
			<path id="Path_18" class="st0" d="M81.4,10.1l-1,0.4l3.9,9.4c0.3-0.1,0.6-0.3,1-0.4L81.4,10.1z"/>
			<path id="Path_19" class="st0" d="M107,250.6l-2,10.1c0.3,0.1,0.7,0.1,1,0.2l2-10.1C107.7,250.7,107.4,250.7,107,250.6z"/>
			<path id="Path_20" class="st0" d="M156.3,12.8l2-10.1c-0.3-0.1-0.7-0.1-1-0.2l-2,10.1C155.6,12.6,156,12.7,156.3,12.8z"/>
			<path id="Path_20_1_" class="st0" d="M106.5,12.8l-2-10.1c0.3-0.1,0.7-0.1,1-0.2l2,10.1C107.2,12.6,106.8,12.7,106.5,12.8z"/>
			<path id="Path_21" class="st0" d="M12.5,108.4l-10.1-2c-0.1,0.3-0.1,0.7-0.2,1l10,2C12.3,109.1,12.4,108.7,12.5,108.4z"/>
			<path id="Path_22" class="st0" d="M250.3,157.7l10.1,2c0.1-0.3,0.1-0.7,0.2-1l-10.1-2C250.4,157,250.4,157.4,250.3,157.7z"/>
			<path id="Path_23" class="st0" d="M233.7,65.9l8.6-5.7c-0.2-0.3-0.4-0.6-0.6-0.9l-8.6,5.7C233.3,65.3,233.5,65.6,233.7,65.9z"/>
			<path id="Path_24" class="st0" d="M30.7,199.1l-8.6,5.7c0.2,0.3,0.4,0.6,0.6,0.9l8.6-5.7C31.1,199.7,30.9,199.4,30.7,199.1z"/>
			<path id="Path_25" class="st0" d="M58.6,22.3l-0.9,0.6l5.6,8.5c0.3-0.2,0.6-0.4,0.9-0.6L58.6,22.3z"/>
			<path id="Path_26" class="st0" d="M197.5,233.7l5.7,8.6c0.3-0.2,0.6-0.4,0.9-0.6l-5.7-8.6C198,233.3,197.8,233.5,197.5,233.7z"/>
			<path id="Path_27" class="st0" d="M199.6,31.1l5.7-8.6c-0.3-0.2-0.6-0.4-0.9-0.6l-5.7,8.6C199.1,30.7,199.4,30.9,199.6,31.1z"/>
			<path id="Path_28" class="st0" d="M64.3,232.6l-5.7,8.6c0.3,0.2,0.6,0.4,0.9,0.6l5.7-8.6C64.8,233,64.6,232.8,64.3,232.6z"/>
			<path id="Path_29" class="st0" d="M30.3,64.9l-8.6-5.7c-0.2,0.3-0.4,0.6-0.6,0.9l8.6,5.7C29.9,65.4,30.1,65.2,30.3,64.9z"/>
			<path id="Path_30" class="st0" d="M231.8,200.2l8.6,5.7c0.2-0.3,0.4-0.6,0.6-0.9l-8.6-5.7C232.2,199.7,232,200,231.8,200.2z"/>
			<path id="Path_31" class="st0" d="M12.7,156l-10.1,2c0.1,0.3,0.1,0.7,0.2,1l10.1-2C12.8,156.7,12.8,156.4,12.7,156z"/>
			<path id="Path_32" class="st0" d="M251,109.3l10.1-2c-0.1-0.3-0.1-0.7-0.2-1l-10.1,2C250.9,108.6,251,108.9,251,109.3z"/>
			<path id="Path_34" class="st0" d="M154.6,250.9l2,10.1c0.3-0.1,0.7-0.1,1-0.2l-2-10.1C155.3,250.8,154.9,250.9,154.6,250.9z"/>
		</g>
		<g id="dounut-crat" transform="translate(8.116 9.178)">
			
				<image style="overflow:visible;opacity:0.2;enable-background:new    ;" width="700" height="700" id="shadow" xlink:href="812525FE.png"  transform="matrix(0.353 0 0 0.353 -7.270813e-06 -2.492683e-05)">
			</image>
			<g id="bg-group" transform="translate(10.59 9.531)">
				<circle id="bg" class="st1" cx="113" cy="113" r="113"/>
			</g>
		</g>
	</g>
	<g id="Ellipse_3" transform="translate(75 139)">
		<circle class="st2" cx="132.5" cy="132.5" r="132.5"/>
		<circle class="st3" cx="132.5" cy="132.5" r="129.5"/>
	</g>
</g>
</svg>
